#!OML:ASF H:\Terrain\Patient Classification 1\Animal2\Wednesday\Animal2.ASF
:FULLY-SPECIFIED
:DEGREES
1789
root 11.2063 16.8409 -1.72712 2.61152 -39.9306 -2.0818
lowerback 4.51855 -5.09895 -0.548219
upperback -2.286 -6.77563 1.82752
thorax -4.60356 -3.32096 2.75162
lowerneck 0.373014 -3.83764 13.0032
upperneck -9.52464 -6.96287 -20.9355
head -4.00734 -3.27082 -8.54397
rclavicle -4.95719e-015 -2.78299e-015
rhumerus -23.8134 17.5192 -97.1425
rradius 137.421
rwrist 8.70708
rhand -30.4974 13.0155
rfingers 7.12502
rthumb -3.79779 -16.9304
lclavicle -4.95719e-015 -2.78299e-015
lhumerus -29.1757 -1.25438 83.8548
lradius 142.449
lwrist 56.8723
lhand -1.53022 39.4778
lfingers 7.12502
lthumb 24.1239 67.9811
rfemur -26.8056 14.9601 10.0127
rtibia 46.3577
rfoot -26.168 -0.723488
rtoes -27.3614
lfemur 3.7637 4.91944 -7.20089
ltibia 28.8369
lfoot -29.1003 8.73121
ltoes -30.6465
1790
root 11.1798 16.849 -1.728 2.64357 -39.1056 -2.21313
lowerback 4.43633 -5.06953 -0.286522
upperback -2.21073 -6.7203 1.80945
thorax -4.51321 -3.30336 2.57293
lowerneck 0.240389 -3.43754 13.3503
upperneck -9.30524 -6.4261 -21.5058
head -3.8477 -3.0146 -8.83874
rclavicle 4.63914e-014 9.93923e-016
rhumerus -23.6687 17.3497 -97.1188
rradius 137.236
rwrist 8.54167
rhand -29.7674 12.9647
rfingers 7.12502
rthumb -3.0928 -16.9926
lclavicle 4.63914e-014 9.93923e-016
lhumerus -29.0889 -1.12363 83.5736
lradius 142.336
lwrist 56.8633
lhand -1.13084 39.5881
lfingers 7.12502
lthumb 24.5068 68.04
rfemur -26.4095 14.5674 10.3084
rtibia 46.3771
rfoot -26.1344 -1.13752
rtoes -27.5209
lfemur 3.73523 4.3741 -6.83619
ltibia 28.5516
lfoot -29.3351 6.5723
ltoes -25.6154
1791
root 11.1526 16.8593 -1.7267 2.53945 -38.4187 -2.33399
lowerback 4.50031 -4.95445 -0.0721037
upperback -2.13878 -6.55238 1.80494
thorax -4.50567 -3.22638 2.44068
lowerneck 0.353995 -3.07487 13.557
upperneck -9.25771 -5.92755 -21.8988
head -3.77546 -2.75842 -9.04127
rclavicle -2.80224e-014 -5.36719e-015
rhumerus -23.7366 17.1434 -97.0941
rradius 137.424
rwrist 7.37919
rhand -28.0834 12.8253
rfingers 7.12502
rthumb -1.46646 -17.1494
lclavicle -2.80224e-014 -5.36719e-015
lhumerus -29.1513 -1.28857 83.4075
lradius 142.179
lwrist 56.6895
lhand -0.876958 39.2502
lfingers 7.12502
lthumb 24.7501 67.669
rfemur -25.8334 14.2779 10.6197
rtibia 46.2948
rfoot -25.9635 -1.61608
rtoes -27.6788
lfemur 4.00676 3.98421 -6.50411
ltibia 28.1137
lfoot -28.7746 5.78765
ltoes -25.7936
1792
root 11.1247 16.8769 -1.72417 2.09753 -37.7711 -1.94938
lowerback 4.41968 -4.71948 -0.330338
upperback -1.95443 -6.25758 1.75326
thorax -4.25704 -3.07731 2.48643
lowerneck 0.909623 -2.78668 13.5229
upperneck -9.92011 -5.59455 -22.0621
head -4.0043 -2.53877 -9.11824
rclavicle 7.41871e-014 6.36111e-015
rhumerus -23.6247 17.0838 -97.0134
rradius 137.508
rwrist 6.65268
rhand -27.0346 12.3606
rfingers 7.12502
rthumb -0.453483 -17.6186
lclavicle 7.41871e-014 6.36111e-015
lhumerus -28.9389 -1.44081 83.4542
lradius 142.043
lwrist 56.3655
lhand -0.15048 38.8498
lfingers 7.12502
lthumb 25.4462 67.1711
rfemur -25.2282 13.9663 10.4894
rtibia 46.11
rfoot -25.8002 -1.897
rtoes -27.3347
lfemur 4.33868 3.57588 -6.68839
ltibia 27.6014
lfoot -27.6529 6.62603
ltoes -30.7809
1793
root 11.0991 16.8988 -1.72486 1.94275 -36.9271 -1.76442
lowerback 4.22933 -4.53511 -0.339433
upperback -1.88678 -6.01285 1.75649
thorax -4.08774 -2.95828 2.45486
lowerneck 1.60916 -2.43612 13.3116
upperneck -10.5531 -5.15681 -22.1639
head -4.22534 -2.25397 -9.14738
rclavicle 4.64721e-014 -3.18055e-015
rhumerus -23.6115 17.0935 -96.975
rradius 137.313
rwrist 7.01415
rhand -26.9497 12.0421
rfingers 7.12502
rthumb -0.37147 -17.9373
lclavicle 4.64721e-014 -3.18055e-015
lhumerus -28.7966 -1.40516 83.4263
lradius 141.974
lwrist 56.0483
lhand 0.858048 38.9348
lfingers 7.12502
lthumb 26.412 67.1148
rfemur -24.7207 13.5267 10.5045
rtibia 45.8103
rfoot -25.4943 -1.98672
rtoes -26.5971
lfemur 4.34903 3.04356 -6.70848
ltibia 27.037
lfoot -26.7547 7.55828
ltoes -35.5796
1794
root 11.0704 16.9265 -1.72383 2.14412 -35.9358 -2.02402
lowerback 4.23559 -4.51094 0.15731
upperback -2.10691 -5.94939 1.75344
thorax -4.37366 -2.93611 2.18929
lowerneck 2.20278 -1.93581 13.3525
upperneck -10.6029 -4.41559 -22.3949
head -4.20811 -1.84375 -9.27468
rclavicle -4.39438e-014 4.37326e-015
rhumerus -24.1931 17.2734 -97.472
rradius 137.185
rwrist 7.85869
rhand -26.7048 11.6241
rfingers 7.12502
rthumb -0.135001 -18.3557
lclavicle -4.39438e-014 4.37326e-015
lhumerus -29.2113 -1.20084 83.003
lradius 141.909
lwrist 55.8308
lhand 1.96122 39.3117
lfingers 7.12502
lthumb 27.4675 67.3288
rfemur -24.1486 13.0143 10.9144
rtibia 45.3978
rfoot -25.0264 -2.22535
rtoes -26.1973
lfemur 4.28339 2.56905 -6.28202
ltibia 26.4108
lfoot -26.0883 7.87035
ltoes -38.4488
1795
root 11.0384 16.9616 -1.71815 2.10329 -34.8927 -1.95559
lowerback 4.19893 -4.38256 0.325499
upperback -2.22193 -5.77156 1.63066
thorax -4.50756 -2.85253 1.96144
lowerneck 2.70511 -1.45451 13.9281
upperneck -10.8228 -3.73228 -22.9027
head -4.24449 -1.47291 -9.60876
rclavicle -4.02539e-014 1.39149e-015
rhumerus -24.6436 17.2155 -97.85
rradius 137.133
rwrist 8.63649
rhand -26.0547 11.2229
rfingers 7.12502
rthumb 0.492942 -18.7563
lclavicle -4.02539e-014 1.39149e-015
lhumerus -29.337 -1.30181 82.6191
lradius 141.793
lwrist 55.7287
lhand 2.93174 39.7439
lfingers 7.12502
lthumb 28.3953 67.61
rfemur -23.4646 12.349 11.0345
rtibia 44.8849
rfoot -24.6387 -2.45356
rtoes -25.9754
lfemur 4.3847 2.09217 -6.1641
ltibia 25.681
lfoot -25.7429 7.58559
ltoes -38.4992
1796
root 11.0076 17.0017 -1.71295 1.8772 -33.8374 -1.5068
lowerback 3.95435 -4.14336 0.0219995
upperback -2.16645 -5.47794 1.4866
thorax -4.30455 -2.70222 1.93383
lowerneck 3.04619 -0.9769 14.6065
upperneck -11.1733 -3.09259 -23.5221
head -4.29147 -1.12974 -10.0105
rclavicle 1.80708e-014 -8.74653e-015
rhumerus -24.6303 16.9997 -97.8658
rradius 137.038
rwrist 9.16656
rhand -25.9992 10.8547
rfingers 7.12502
rthumb 0.54654 -19.1243
lclavicle 1.80708e-014 -8.74653e-015
lhumerus -29.24 -1.48984 82.5758
lradius 141.767
lwrist 55.4367
lhand 3.89775 40.2113
lfingers 7.12502
lthumb 29.3181 67.9199
rfemur -22.8278 11.5531 10.7878
rtibia 44.2724
rfoot -24.1786 -2.91671
rtoes -27.0782
lfemur 4.51961 1.54867 -6.44576
ltibia 24.792
lfoot -25.4626 7.16758
ltoes -37.455
1797
root 10.9748 17.055 -1.70175 1.61642 -32.8543 -1.11565
lowerback 3.75194 -4.01117 -0.207439
upperback -2.15833 -5.31759 1.43164
thorax -4.17051 -2.61849 1.97497
lowerneck 3.22427 -0.349681 14.9326
upperneck -11.0344 -2.19337 -24.1169
head -4.09894 -0.66684 -10.3284
rclavicle -6.4605e-016 7.15625e-015
rhumerus -24.9001 17.216 -97.951
rradius 137.115
rwrist 9.40723
rhand -25.6732 10.3251
rfingers 7.12502
rthumb 0.861357 -19.6529
lclavicle -6.4605e-016 7.15625e-015
lhumerus -29.4642 -1.29368 82.5511
lradius 141.996
lwrist 55.2976
lhand 4.40127 40.4465
lfingers 7.12502
lthumb 29.7987 68.07
rfemur -22.0195 10.9367 10.5604
rtibia 43.5509
rfoot -23.6456 -2.80114
rtoes -26.6152
lfemur 4.81951 0.841605 -6.72531
ltibia 23.7897
lfoot -24.5624 6.91862
ltoes -38.0816
1798
root 10.94 17.1182 -1.68635 1.42359 -31.7545 -1.02117
lowerback 3.67115 -4.05159 -0.145647
upperback -2.21069 -5.36523 1.52017
thorax -4.17503 -2.64273 2.03115
lowerneck 3.60731 0.443692 15.0311
upperneck -10.8808 -1.049 -24.7258
head -3.87651 -0.0613367 -10.6118
rclavicle 1.36416e-014 -1.35174e-014
rhumerus -25.3368 17.8038 -98.0566
rradius 137.152
rwrist 9.07027
rhand -24.9114 10.1189
rfingers 7.12502
rthumb 1.59717 -19.8549
lclavicle 1.36416e-014 -1.35174e-014
lhumerus -29.6227 -0.805809 82.2124
lradius 142.164
lwrist 55.5325
lhand 4.44768 40.3654
lfingers 7.12502
lthumb 29.843 67.981
rfemur -20.9473 10.3983 10.5985
rtibia 42.7377
rfoot -23.2631 -2.04442
rtoes -24.1807
lfemur 5.16324 -0.0545367 -6.70722
ltibia 22.7449
lfoot -23.1437 6.53568
ltoes -38.894
1799
root 10.9068 17.1751 -1.68022 1.59828 -30.5831 -1.40763
lowerback 3.61865 -4.18393 0.203618
upperback -2.37507 -5.51102 1.84428
thorax -4.31299 -2.71948 2.18632
lowerneck 4.68044 1.25586 14.8805
upperneck -11.3313 0.0748299 -25.278
head -3.9512 0.600267 -10.8569
rclavicle 2.4289e-014 -1.59028e-015
rhumerus -25.8423 18.56 -98.0389
rradius 137.234
rwrist 8.49964
rhand -24.7327 10.0566
rfingers 7.12502
rthumb 1.76974 -19.9158
lclavicle 2.4289e-014 -1.59028e-015
lhumerus -29.888 -0.133678 81.8106
lradius 142.003
lwrist 54.9072
lhand 5.46742 40.1114
lfingers 7.12502
lthumb 30.8157 67.5479
rfemur -20.0144 9.97213 11.1174
rtibia 41.8815
rfoot -22.6098 -2.20858
rtoes -24.4316
lfemur 5.33579 -0.691679 -6.12808
ltibia 21.6443
lfoot -21.6347 6.20213
ltoes -40.0829
1800
root 10.8779 17.2363 -1.67743 1.80619 -29.3512 -1.60222
lowerback 3.42015 -4.2564 0.400317
upperback -2.61014 -5.58691 2.15513
thorax -4.43121 -2.75788 2.39899
lowerneck 6.03651 1.98479 14.5548
upperneck -11.9301 1.06315 -25.7721
head -4.15038 1.22516 -11.0635
rclavicle 5.43676e-014 -7.95139e-016
rhumerus -26.4935 19.1601 -97.8852
rradius 137.622
rwrist 8.07223
rhand -23.735 9.74446
rfingers 7.12502
rthumb 2.73332 -20.2178
lclavicle 5.43676e-014 -7.95139e-016
lhumerus -30.3889 0.552122 81.6376
lradius 141.992
lwrist 54.1086
lhand 6.98741 40.6798
lfingers 7.12502
lthumb 32.2637 67.8325
rfemur -19.293 9.52356 11.4121
rtibia 41.0362
rfoot -21.5859 -2.49208
rtoes -25.1804
lfemur 5.35086 -1.16638 -5.72837
ltibia 20.5685
lfoot -20.3194 6.06003
ltoes -42.4607
1801
root 10.8502 17.3136 -1.67276 1.77018 -27.9863 -1.26933
lowerback 3.01832 -4.07777 0.273363
upperback -2.65756 -5.36101 2.12673
thorax -4.25161 -2.6445 2.39303
lowerneck 6.75309 2.55177 14.6107
upperneck -12.2009 1.87339 -26.1608
head -4.17077 1.69831 -11.2739
rclavicle -2.38293e-014 -7.15625e-015
rhumerus -26.3724 19.057 -97.6847
rradius 137.574
rwrist 7.7241
rhand -22.1795 9.6075
rfingers 7.12502
rthumb 4.23541 -20.3301
lclavicle -2.38293e-014 -7.15625e-015
lhumerus -30.3574 0.702461 81.4531
lradius 142.15
lwrist 54.4747
lhand 8.76974 42.5597
lfingers 7.12502
lthumb 33.9586 69.3527
rfemur -18.6136 8.85686 11.1397
rtibia 40.2218
rfoot -20.5961 -2.09962
rtoes -24.6047
lfemur 5.15726 -1.80505 -5.87173
ltibia 19.6416
lfoot -18.9401 5.54677
ltoes -43.6466
1802
root 10.821 17.3998 -1.66697 1.6951 -26.7392 -1.02441
lowerback 2.51722 -3.51681 0.359098
upperback -2.35374 -4.62711 1.79671
thorax -3.71184 -2.2915 1.90955
lowerneck 6.1959 2.96186 15.3595
upperneck -11.833 2.54666 -26.5057
head -3.78418 1.97962 -11.5228
rclavicle -1.12935e-013 3.18055e-015
rhumerus -25.4886 18.0964 -97.5095
rradius 137.084
rwrist 8.14559
rhand -21.7771 9.53441
rfingers 7.12502
rthumb 4.62401 -20.3951
lclavicle -1.12935e-013 3.18055e-015
lhumerus -29.3652 -0.307537 81.317
lradius 142.072
lwrist 54.922
lhand 10.0758 43.5532
lfingers 7.12502
lthumb 35.1983 70.0628
rfemur -17.9003 8.31035 10.9469
rtibia 39.4343
rfoot -19.6691 -1.61715
rtoes -24.1126
lfemur 5.02801 -2.47011 -5.93709
ltibia 18.7385
lfoot -17.2187 4.79493
ltoes -43.8639
